<?xml version="1.0" encoding="UTF-8"?>
<svg id="Camada_2" data-name="Camada 2" xmlns="http://www.w3.org/2000/svg" viewBox="0 0 337.31 107.62">
  <defs>
    <style>
      .cls-1, .cls-2 {
        fill: #ff6b6b;
      }

      .cls-2 {
        stroke: #ff6b6b;
        stroke-miterlimit: 10;
        stroke-width: 5px;
      }
    </style>
  </defs>
  <g id="Camada_1-2" data-name="Camada 1">
    <g>
      <path class="cls-1" d="M37.43,46.04c0-4.58-1.21-7.99-3.63-10.25-2.42-2.25-5.94-3.38-10.55-3.38-3.18,0-6.12.57-8.85,1.7-2.72,1.13-5.03,2.65-6.92,4.54l-4.31-5.1c2.19-2.19,5.08-4.01,8.68-5.44,3.59-1.44,7.66-2.15,12.19-2.15,2.87,0,5.56.4,8.05,1.19s4.69,1.98,6.58,3.57c1.89,1.59,3.36,3.59,4.42,6.01,1.06,2.42,1.59,5.26,1.59,8.51v23.25c0,2.04.07,4.16.23,6.35.15,2.19.38,4.05.68,5.56h-6.92c-.23-1.29-.42-2.68-.57-4.2-.15-1.51-.23-2.99-.23-4.42h-.23c-2.42,3.56-5.16,6.11-8.22,7.66-3.06,1.55-6.75,2.33-11.06,2.33-2.04,0-4.14-.29-6.3-.85-2.15-.57-4.12-1.5-5.9-2.79-1.78-1.29-3.25-2.96-4.42-5.01-1.17-2.05-1.76-4.55-1.76-7.51,0-4.1,1.04-7.34,3.12-9.73,2.08-2.39,4.86-4.17,8.34-5.35,3.48-1.18,7.47-1.94,11.97-2.28,4.5-.34,9.17-.51,14.01-.51v-1.69ZM35.16,53.85c-3.18,0-6.37.13-9.58.4-3.21.27-6.12.79-8.73,1.59s-4.75,1.95-6.41,3.46c-1.66,1.51-2.5,3.52-2.5,6.01,0,1.89.36,3.48,1.08,4.76.72,1.29,1.68,2.33,2.89,3.12,1.21.79,2.55,1.36,4.03,1.7,1.47.34,2.97.51,4.48.51,2.72,0,5.14-.47,7.26-1.42,2.12-.94,3.89-2.23,5.33-3.86,1.44-1.62,2.53-3.5,3.29-5.61.75-2.12,1.13-4.35,1.13-6.69v-3.97h-2.27Z"/>
      <path class="cls-1" d="M72.25,107.62h-7.71V27.31h7.71v9.19h.34c2.19-3.48,5.12-6.11,8.79-7.88,3.67-1.78,7.39-2.67,11.17-2.67,4.16,0,7.92.72,11.29,2.15,3.36,1.44,6.24,3.4,8.62,5.9,2.38,2.5,4.23,5.44,5.56,8.85,1.32,3.4,1.98,7.07,1.98,11s-.66,7.6-1.98,11c-1.32,3.4-3.18,6.35-5.56,8.85-2.38,2.5-5.26,4.46-8.62,5.9-3.37,1.44-7.13,2.16-11.29,2.16-3.78,0-7.51-.89-11.17-2.67-3.67-1.78-6.6-4.33-8.79-7.66h-.34v36.18ZM111.84,53.85c0-2.95-.45-5.73-1.36-8.34-.91-2.61-2.21-4.88-3.91-6.81-1.7-1.93-3.8-3.46-6.3-4.59s-5.33-1.7-8.51-1.7c-2.95,0-5.67.55-8.17,1.64-2.5,1.1-4.65,2.61-6.47,4.54s-3.23,4.2-4.25,6.81-1.53,5.43-1.53,8.45.51,5.84,1.53,8.45,2.44,4.86,4.25,6.75c1.81,1.89,3.97,3.39,6.47,4.48,2.5,1.1,5.22,1.64,8.17,1.64,3.18,0,6.01-.55,8.51-1.64,2.5-1.1,4.59-2.61,6.3-4.54,1.7-1.93,3.01-4.2,3.91-6.81.91-2.61,1.36-5.39,1.36-8.34Z"/>
      <path class="cls-1" d="M184.89,52.26v1.7c0,.61-.04,1.25-.11,1.93h-44.01c.07,2.65.6,5.14,1.59,7.49.98,2.34,2.34,4.39,4.08,6.12,1.74,1.74,3.78,3.12,6.12,4.14,2.34,1.02,4.88,1.53,7.6,1.53,4.01,0,7.47-.92,10.38-2.78,2.91-1.85,5.12-3.99,6.64-6.41l5.78,4.54c-3.18,4.01-6.67,6.88-10.49,8.62-3.82,1.74-7.92,2.61-12.31,2.61-3.93,0-7.58-.7-10.95-2.1-3.37-1.4-6.26-3.35-8.68-5.84-2.42-2.5-4.33-5.44-5.73-8.85-1.4-3.4-2.1-7.11-2.1-11.12s.68-7.71,2.04-11.12c1.36-3.4,3.25-6.35,5.67-8.85,2.42-2.5,5.25-4.44,8.51-5.84,3.25-1.4,6.77-2.1,10.55-2.1,4.16,0,7.83.7,11,2.1,3.18,1.4,5.82,3.29,7.94,5.67,2.12,2.38,3.72,5.16,4.82,8.34,1.1,3.18,1.64,6.58,1.64,10.21ZM177.06,49.77c-.23-4.99-1.83-9.13-4.82-12.42-2.99-3.29-7.24-4.93-12.76-4.93-2.57,0-4.95.47-7.15,1.42-2.19.95-4.12,2.23-5.78,3.86-1.66,1.63-2.99,3.48-3.97,5.56-.98,2.08-1.55,4.25-1.7,6.52h36.18ZM177.17,16.42h-7.49l-9.41-12.25-9.41,12.25h-7.49L155.73.09h9.07l12.36,16.33Z"/>
      <path class="cls-2" d="M232.52,78.44h-8.17V12.05l-14.52,11.69-4.99-5.36,20.42-15.88h7.26v75.94Z"/>
      <path class="cls-2" d="M283.67,78.44h-8.17V12.05l-14.52,11.69-4.99-5.36,20.42-15.88h7.26v75.94Z"/>
      <path class="cls-2" d="M334.81,78.44h-8.17V12.05l-14.52,11.69-4.99-5.36,20.42-15.88h7.26v75.94Z"/>
    </g>
  </g>
</svg>