<?xml version="1.0" encoding="UTF-8"?>
<svg id="Camada_2" data-name="Camada 2" xmlns="http://www.w3.org/2000/svg" viewBox="0 0 142.13 120.71">
  <defs>
    <style>
      .cls-1, .cls-2 {
        fill: #ff6b6b;
      }

      .cls-2 {
        stroke: #ff6b6b;
        stroke-miterlimit: 10;
        stroke-width: 5px;
      }
    </style>
  </defs>
  <g id="Camada_1-2" data-name="Camada 1">
    <g>
      <path class="cls-1" d="M28.77,35.32c0-3.52-.93-6.14-2.79-7.88-1.86-1.73-4.56-2.6-8.11-2.6-2.44,0-4.71.44-6.8,1.31-2.09.87-3.87,2.04-5.32,3.49l-3.31-3.92c1.69-1.69,3.91-3.08,6.67-4.19,2.76-1.1,5.89-1.66,9.37-1.66,2.21,0,4.27.31,6.19.92s3.6,1.53,5.06,2.75c1.45,1.22,2.59,2.76,3.4,4.62.81,1.86,1.22,4.04,1.22,6.54v17.88c0,1.57.06,3.2.17,4.88.12,1.69.29,3.11.52,4.27h-5.32c-.17-.99-.32-2.06-.44-3.23-.12-1.16-.17-2.3-.17-3.4h-.17c-1.86,2.73-3.97,4.69-6.32,5.89-2.35,1.19-5.19,1.79-8.5,1.79-1.57,0-3.18-.22-4.84-.66-1.66-.44-3.17-1.15-4.53-2.14-1.37-.99-2.5-2.28-3.4-3.85-.9-1.57-1.35-3.5-1.35-5.77,0-3.15.8-5.64,2.4-7.48,1.6-1.84,3.73-3.21,6.41-4.11,2.67-.9,5.74-1.49,9.2-1.75,3.46-.26,7.05-.39,10.77-.39v-1.3ZM27.03,41.33c-2.44,0-4.9.1-7.37.31-2.47.2-4.71.61-6.71,1.22s-3.65,1.5-4.93,2.66c-1.28,1.16-1.92,2.7-1.92,4.62,0,1.45.28,2.67.83,3.66.55.99,1.29,1.79,2.22,2.4.93.61,1.96,1.05,3.1,1.31,1.13.26,2.28.39,3.44.39,2.09,0,3.95-.36,5.58-1.09,1.63-.73,2.99-1.71,4.1-2.96,1.1-1.25,1.95-2.69,2.53-4.32.58-1.63.87-3.34.87-5.14v-3.05h-1.74Z"/>
      <path class="cls-1" d="M55.54,82.66h-5.93V20.93h5.93v7.06h.26c1.69-2.67,3.94-4.69,6.76-6.06,2.82-1.37,5.68-2.05,8.59-2.05,3.2,0,6.09.55,8.68,1.66,2.59,1.11,4.8,2.62,6.63,4.53,1.83,1.92,3.25,4.19,4.27,6.8,1.02,2.62,1.53,5.44,1.53,8.46s-.51,5.84-1.53,8.46c-1.02,2.62-2.44,4.88-4.27,6.8-1.83,1.92-4.04,3.43-6.63,4.53-2.59,1.1-5.48,1.66-8.68,1.66-2.91,0-5.77-.68-8.59-2.05-2.82-1.37-5.07-3.33-6.76-5.89h-.26v27.82ZM85.97,41.33c0-2.27-.35-4.4-1.05-6.41-.7-2.01-1.7-3.75-3.01-5.23-1.31-1.48-2.92-2.66-4.84-3.53s-4.1-1.31-6.54-1.31c-2.27,0-4.36.42-6.28,1.26-1.92.84-3.57,2.01-4.97,3.49s-2.48,3.23-3.27,5.23-1.18,4.17-1.18,6.5.39,4.49,1.18,6.5,1.87,3.74,3.27,5.19c1.4,1.45,3.05,2.6,4.97,3.44,1.92.84,4.01,1.26,6.28,1.26,2.44,0,4.62-.42,6.54-1.26,1.92-.84,3.53-2.01,4.84-3.49,1.31-1.48,2.31-3.23,3.01-5.23.7-2.01,1.05-4.14,1.05-6.41Z"/>
      <path class="cls-1" d="M142.13,40.11v1.31c0,.47-.03.96-.09,1.48h-33.83c.06,2.04.46,3.95,1.22,5.75.75,1.8,1.8,3.37,3.14,4.71,1.34,1.34,2.91,2.4,4.71,3.18,1.8.78,3.75,1.18,5.84,1.18,3.08,0,5.74-.71,7.98-2.14,2.24-1.42,3.94-3.07,5.1-4.93l4.45,3.49c-2.44,3.08-5.13,5.29-8.07,6.63-2.94,1.34-6.09,2.01-9.46,2.01-3.02,0-5.83-.54-8.41-1.61-2.59-1.08-4.81-2.57-6.67-4.49-1.86-1.92-3.33-4.19-4.4-6.8-1.08-2.62-1.61-5.46-1.61-8.54s.52-5.93,1.57-8.54c1.05-2.62,2.5-4.88,4.36-6.8,1.86-1.92,4.04-3.41,6.54-4.49,2.5-1.08,5.2-1.61,8.11-1.61,3.2,0,6.02.54,8.46,1.61,2.44,1.08,4.48,2.53,6.1,4.36,1.63,1.83,2.86,3.97,3.71,6.41.84,2.44,1.26,5.06,1.26,7.85ZM136.11,38.19c-.17-3.84-1.41-7.02-3.71-9.55-2.3-2.53-5.57-3.79-9.81-3.79-1.98,0-3.81.36-5.49,1.09-1.69.73-3.17,1.72-4.45,2.96-1.28,1.25-2.3,2.67-3.05,4.27-.76,1.6-1.19,3.27-1.31,5.01h27.82ZM136.2,12.56h-5.75l-7.24-9.42-7.24,9.42h-5.75L119.72,0h6.98l9.5,12.56Z"/>
    </g>
    <g>
      <path class="cls-2" d="M79.2,118.21h-4.81v-39.1l-8.55,6.89-2.94-3.16,12.02-9.35h4.27v44.72Z"/>
      <path class="cls-2" d="M109.32,118.21h-4.81v-39.1l-8.55,6.89-2.94-3.16,12.02-9.35h4.27v44.72Z"/>
      <path class="cls-2" d="M139.44,118.21h-4.81v-39.1l-8.55,6.89-2.94-3.16,12.02-9.35h4.27v44.72Z"/>
    </g>
  </g>
</svg>